<svg width="143" height="143" viewBox="0 0 143 143" fill="none" xmlns="http://www.w3.org/2000/svg">
<path d="M71.8273 142.39C111.029 142.39 142.808 110.878 142.808 72.0055C142.808 33.1334 111.029 1.62134 71.8273 1.62134C32.6258 1.62134 0.84668 33.1334 0.84668 72.0055C0.84668 110.878 32.6258 142.39 71.8273 142.39Z" fill="white"/>
<path d="M44.3099 73.5611C46.4526 73.9605 48.214 75.0319 49.5941 76.7752C50.9741 78.5184 51.6642 80.5158 51.6642 82.7675C51.6642 84.8013 51.1557 86.599 50.1388 88.1607C49.1583 89.686 47.7237 90.8845 45.8352 91.7561C43.9467 92.6277 41.7132 93.0635 39.1346 93.0635H22.7373V55.0391H38.4264C41.005 55.0391 43.2204 55.4568 45.0725 56.2921C46.9611 57.1274 48.3774 58.2896 49.3217 59.7786C50.3023 61.2676 50.7925 62.9564 50.7925 64.8449C50.7925 67.0602 50.1933 68.9124 48.9948 70.4014C47.8327 71.8905 46.271 72.9437 44.3099 73.5611ZM30.364 70.7283H37.3369C39.1528 70.7283 40.551 70.3288 41.5316 69.5298C42.5122 68.6945 43.0024 67.5142 43.0024 65.9889C43.0024 64.4635 42.5122 63.2832 41.5316 62.4479C40.551 61.6126 39.1528 61.195 37.3369 61.195H30.364V70.7283ZM38.0451 86.8532C39.8973 86.8532 41.3318 86.4174 42.3487 85.5458C43.4019 84.6742 43.9285 83.4394 43.9285 81.8414C43.9285 80.2071 43.3838 78.936 42.2943 78.0281C41.2047 77.0838 39.7339 76.6117 37.8817 76.6117H30.364V86.8532H38.0451ZM81.0584 85.8182H65.914L63.4081 93.0635H55.4001L69.0736 54.9847H77.9532L91.6268 93.0635H83.5643L81.0584 85.8182ZM78.9883 79.7169L73.4862 63.8098L67.9841 79.7169H78.9883ZM109.867 93.4449C107.215 93.4449 104.818 92.9909 102.676 92.083C100.569 91.175 98.8987 89.8676 97.6639 88.1607C96.4291 86.4538 95.7935 84.4381 95.7572 82.1138H103.929C104.038 83.6755 104.582 84.9103 105.563 85.8182C106.58 86.7261 107.96 87.1801 109.703 87.1801C111.483 87.1801 112.881 86.7624 113.898 85.9271C114.915 85.0555 115.423 83.9297 115.423 82.5496C115.423 81.4238 115.078 80.4977 114.388 79.7713C113.698 79.045 112.826 78.4821 111.773 78.0826C110.756 77.6468 109.34 77.1746 107.524 76.6662C105.054 75.9399 103.039 75.2317 101.477 74.5416C99.9519 73.8153 98.6263 72.7439 97.5004 71.3275C96.4109 69.8748 95.8661 67.95 95.8661 65.5531C95.8661 63.3014 96.4291 61.3402 97.5549 59.6696C98.6807 57.999 100.261 56.7279 102.294 55.8563C104.328 54.9484 106.652 54.4944 109.267 54.4944C113.19 54.4944 116.367 55.4568 118.801 57.3816C121.27 59.2701 122.632 61.9213 122.886 65.3351H114.497C114.424 64.0277 113.861 62.9564 112.808 62.1211C111.791 61.2494 110.429 60.8136 108.723 60.8136C107.234 60.8136 106.035 61.195 105.127 61.9576C104.255 62.7203 103.82 63.828 103.82 65.2807C103.82 66.2976 104.147 67.151 104.8 67.8411C105.49 68.4948 106.326 69.0395 107.306 69.4753C108.323 69.8748 109.739 70.347 111.555 70.8917C114.025 71.6181 116.04 72.3444 117.602 73.0708C119.164 73.7971 120.508 74.8866 121.633 76.3393C122.759 77.792 123.322 79.6987 123.322 82.0593C123.322 84.0931 122.796 85.9816 121.742 87.7249C120.689 89.4681 119.146 90.8663 117.112 91.9195C115.078 92.9364 112.663 93.4449 109.867 93.4449Z" fill="#3699FF"/>
</svg>