<svg width="1499" height="322" viewBox="0 0 1499 322" fill="none" xmlns="http://www.w3.org/2000/svg">
<path d="M723.383 93.2203C727.69 86.4205 732.399 77.4603 732.517 69.6221C732.517 68.8015 731.981 68.366 731.36 68.2823C731.36 67.5454 730.522 66.9592 729.819 67.5956C714.082 82.3172 694.926 90.3563 675.485 98.9649C658.072 106.686 635.681 116.718 627.067 134.99C626.933 135.258 626.916 135.526 626.95 135.761C626.883 135.895 626.832 136.012 626.765 136.146C626.497 136.615 626.548 137.251 626.966 137.62C627.117 137.754 627.251 137.888 627.402 138.022C627.922 138.507 628.609 138.457 629.145 138.022C629.514 137.72 629.883 137.435 630.251 137.134C630.201 137.251 630.151 137.352 630.1 137.469C629.547 138.558 630.771 140.182 631.944 139.311C632.631 138.809 633.285 138.306 633.938 137.821C633.754 138.306 633.586 138.775 633.402 139.278C632.933 140.601 634.776 141.589 635.698 140.618C635.966 140.333 636.268 140.065 636.553 139.797C636.536 139.847 636.519 139.881 636.503 139.931C636 141.07 637.123 142.728 638.413 141.84C644.597 137.586 650.312 132.662 656.463 128.358C664.239 122.915 672.937 119.431 681.786 116.115C696.132 110.722 709.456 105.095 721.405 95.431C721.724 95.431 722.042 95.3138 722.243 94.9956C722.361 94.8281 722.478 94.6439 722.595 94.4596C722.662 94.3926 722.746 94.3424 722.813 94.2921C723.199 93.9572 723.366 93.5887 723.4 93.2203H723.383Z" fill="#F7BAB5"/>
<path d="M639.252 128.04C622.04 114.373 596.75 112.564 575.633 112.414C574.929 112.414 570.337 112.414 570.337 112.414H0V116.869H572.097C575.398 116.802 586.124 117.086 587.8 117.204C608.716 118.56 630.57 122.68 645.151 139.093C653.363 148.338 658.508 159.208 663.62 170.161C664.709 169.307 665.949 168.654 667.273 168.218C660.469 153.112 652.659 138.658 639.252 128.023V128.04Z" fill="white"/>
<path d="M1501 112.414H930.646C930.646 112.414 926.054 112.414 925.35 112.414C904.25 112.564 878.943 114.39 861.731 128.04C846.179 140.366 838.151 157.835 830.509 175.504C831.699 175.856 832.922 176.408 834.146 176.961C840.464 163.797 845.894 150.248 855.815 139.093C870.413 122.697 892.25 118.56 913.183 117.204C914.859 117.086 925.585 116.802 928.886 116.869H1500.98V112.414H1501Z" fill="white"/>
<path d="M711.467 221.896C710.646 241.508 714.166 300.01 713.881 309.422C719.093 309.556 726.702 307.044 730.774 306.525C732.014 306.374 735.064 285.02 734.109 224.626C732.199 223.94 713.177 219.92 711.484 221.896H711.467Z" fill="#F7BAB5"/>
<path d="M780.449 221.628C780.063 221.578 758.645 223.806 757.271 223.27C757.74 256.665 758.142 296.325 758.997 302.857C759.315 305.302 760.069 307.128 761.092 308.518C766.388 308.752 773.98 311.03 777.181 308.886C777.382 307.814 777.398 302.388 777.147 302.388C777.767 295.806 779.996 253.266 780.449 221.645V221.628Z" fill="#F7BAB5"/>
<path d="M771.818 66.7749C771.818 66.7749 771.818 66.6912 771.801 66.6577C770.963 64.0115 768.164 62.3199 765.868 60.9633C764.192 59.9752 762.281 59.054 760.321 58.5851C760.153 53.6946 760.354 47.1963 759.952 44.0644C759.583 41.0833 775.505 0.803941 735.902 8.18988C734.913 8.37411 734.36 8.69232 733.17 9.11103C711.534 16.7314 713.512 47.3973 737.511 51.7351C737.763 53.2089 736.858 57.1112 736.623 60.2934C735.483 60.9968 734.411 61.8007 733.422 62.5879C731.746 63.9277 730.003 65.5188 729.182 67.5286C728.495 67.8133 727.975 68.4497 727.992 69.4379C727.992 71.1797 728.461 72.62 729.215 73.8594C729.4 74.4791 729.802 74.9983 730.338 75.2662C738.835 83.7241 767.779 76.5223 772.153 68.3492C772.471 67.7463 772.253 67.1266 771.818 66.7917V66.7749Z" fill="#F7BAB5"/>
<path d="M760.221 6.48149C756.819 0.971342 752.612 -1.28966 738.182 0.736869C731.898 1.62452 725.211 -2.04332 722.177 1.8255C721.021 3.29934 721.356 4.84017 722.395 6.23026C716.596 6.314 711.686 7.78784 717.904 13.5492C716.982 13.8339 716.261 14.6211 716.278 15.6595C716.328 22.0405 735.333 21.7558 739.59 15.6595C741.434 19.5115 746.847 23.0287 751.121 24.5862C753.903 22.074 758.947 22.7104 759.383 26.1606C759.785 29.3427 758.93 30.8835 754.724 32.4579C755.713 40.9157 759.182 45.8396 760.841 45.019C762.953 43.9973 775.975 12.2596 760.238 6.49823L760.221 6.48149Z" fill="#1E1E1E"/>
<path d="M781.186 148.975C780.985 146.881 779.427 145.91 777.801 146.094C757.506 135.308 739.707 147.233 718.171 145.742C716.412 145.625 715.356 147.082 715.188 148.59C714.652 148.891 714.25 149.41 714.132 150.181C709.021 183.208 709.674 224.409 709.658 225.849C709.641 227.205 711.518 228.127 712.456 227.021C712.808 226.603 713.11 226.184 713.395 225.748C713.462 226.016 713.512 226.284 713.579 226.552C713.998 228.143 716.16 228.344 716.998 226.988C717.233 226.586 717.451 226.201 717.669 225.799C717.786 226.184 717.886 226.586 718.037 226.971C718.322 227.792 718.993 228.378 719.898 228.378C719.965 228.378 720.032 228.378 720.099 228.378C720.987 228.378 721.691 227.775 721.959 226.971C722.11 226.485 722.294 226.016 722.479 225.564C722.629 226.167 722.797 226.77 722.931 227.39C723.367 229.433 726.082 229.064 726.702 227.39C726.853 226.988 727.004 226.602 727.154 226.201C727.238 226.602 727.322 227.004 727.423 227.39C727.825 228.964 730.272 229.416 731.009 227.859C731.294 227.256 731.512 226.552 731.73 225.832C731.83 226.435 731.914 227.021 732.015 227.624C732.299 229.483 734.998 229.55 735.836 228.127C737.361 225.514 739.188 198.08 742.405 171.685C747.534 170.128 748.941 171.468 753.048 171.451C754.908 180.545 755.344 225.815 755.662 227.524C755.947 229.031 758.126 229.165 758.83 227.942C759.031 227.607 759.215 227.256 759.399 226.904C759.55 227.39 759.701 227.875 759.852 228.378C760.355 230.069 763.003 230.22 763.422 228.378C763.589 227.658 763.824 227.004 764.075 226.368C764.142 226.736 764.193 227.088 764.243 227.49C764.511 229.6 767.176 230.069 767.947 227.993C768.215 227.272 768.466 226.536 768.751 225.832C768.885 226.569 768.986 227.289 769.187 227.993C769.723 229.919 772.271 229.718 772.891 227.993C773.108 227.39 773.293 226.803 773.511 226.201C773.695 226.753 773.896 227.289 774.131 227.825C774.851 229.45 777.08 228.73 777.566 227.373C777.667 227.071 777.768 226.787 777.885 226.502C778.254 228.83 782.024 228.746 781.857 226.268C781.706 224.141 784.036 176.944 781.237 148.992L781.186 148.975Z" fill="#0D5591"/>
<path d="M720.518 209.218C717.568 208.799 714.635 208.816 711.669 209.067C710.362 209.184 710.345 211.194 711.669 211.11C713.244 211.027 714.803 210.993 716.378 211.06C714.702 211.831 712.959 212.501 711.233 213.02C709.976 213.405 709.54 215.314 710.848 215.967C713.144 217.123 715.809 217.559 718.306 216.972C719.579 216.671 719.546 214.745 718.306 214.427C717.535 214.226 716.747 214.075 715.976 213.924C717.602 213.087 719.261 212.283 720.786 211.278C721.507 210.792 721.574 209.352 720.518 209.201V209.218Z" fill="white"/>
<path d="M774.835 195.97C776.611 195.719 778.404 195.853 780.164 195.602C781.438 195.417 781.438 193.207 780.164 193.022C778.136 192.721 776.108 192.922 774.114 193.357C772.371 193.743 773.159 196.205 774.835 195.97Z" fill="white"/>
<path d="M780.868 196.406C779.51 196.288 778.035 196.808 776.728 197.109C775.387 197.411 773.98 197.913 772.991 198.884C772.354 199.521 772.874 200.459 773.678 200.542C774.952 200.66 776.309 200.341 777.549 200.107C778.873 199.856 780.432 199.755 781.555 198.951C782.678 198.147 782.259 196.54 780.868 196.406Z" fill="white"/>
<path d="M750.651 159.911C750.082 163.328 749.227 166.728 748.959 170.195C748.875 171.35 750.769 171.618 750.987 170.463C751.64 167.046 752.327 163.629 752.629 160.179C752.73 159.057 750.836 158.789 750.651 159.911Z" fill="#083354"/>
<path d="M758.26 221.88C758.193 222.6 758.159 223.27 758.293 223.99C758.494 225.146 760.422 225.146 760.623 223.99C760.757 223.27 760.707 222.6 760.656 221.88C760.539 220.339 758.394 220.339 758.277 221.88H758.26Z" fill="#083354"/>
<path d="M760.388 198.131C760.59 197.327 760.305 196.69 760.154 195.903C759.919 194.647 758.227 195.116 758.109 196.171C758.025 196.841 757.992 197.477 758.21 198.114C758.545 199.119 760.104 199.253 760.372 198.114L760.388 198.131Z" fill="#083354"/>
<path d="M758.327 203.859C758.193 204.411 758.143 204.897 758.159 205.466C758.226 206.94 760.372 206.94 760.439 205.466C760.455 204.897 760.405 204.411 760.271 203.859C760.053 202.887 758.545 202.887 758.327 203.859Z" fill="#083354"/>
<path d="M759.382 181.081C759.5 180.311 759.315 179.758 758.963 179.071C758.511 178.184 757.07 178.602 757.103 179.574C757.12 180.093 757.036 180.562 757.12 181.081C757.304 182.186 759.198 182.203 759.366 181.081H759.382Z" fill="#083354"/>
<path d="M758.679 174.03C758.679 173.528 758.612 173.042 758.461 172.573C758.109 171.334 756.249 171.853 756.533 173.109C756.6 173.427 756.617 173.712 756.617 174.047C756.617 175.37 758.712 175.37 758.662 174.047L758.679 174.03Z" fill="#083354"/>
<path d="M758.997 190.008C759.567 190.008 760.22 189.489 760.153 188.852C760.086 188.283 759.935 187.797 759.785 187.244C759.55 186.323 758.142 186.307 757.908 187.244C757.74 187.898 757.606 188.501 757.874 189.154C758.075 189.639 758.427 189.991 758.98 189.991L758.997 190.008Z" fill="#083354"/>
<path d="M782.025 163.68C778.673 161.703 776.762 159.158 776.343 155.188C776.176 153.614 773.712 153.564 773.846 155.188C774.181 159.576 776.36 164.735 781.053 165.991C782.444 166.359 783.265 164.417 782.025 163.68Z" fill="#083354"/>
<path d="M760.019 214.812C760.623 214.175 760.656 213.372 760.371 212.568C759.785 210.943 757.472 211.898 758.192 213.489C758.209 213.489 758.226 213.455 758.26 213.439C757.757 214.544 759.081 215.783 760.019 214.795V214.812Z" fill="#083354"/>
<path d="M738.937 173.276C738.937 173.578 738.92 173.879 738.903 174.181C738.853 175.537 741.048 175.537 741.015 174.181C741.015 173.879 740.998 173.578 740.981 173.276C740.948 171.953 738.97 171.953 738.937 173.276Z" fill="#083354"/>
<path d="M717.736 156.076C717.166 157.416 716.546 158.722 715.792 159.978C714.887 161.469 713.613 162.34 712.49 163.596C711.753 164.417 712.457 166.125 713.68 165.639C716.998 164.299 718.691 160.079 719.898 156.98C720.384 155.741 718.255 154.853 717.736 156.076Z" fill="#083354"/>
<path d="M734.277 215.582C733.942 216.286 733.925 216.872 734.043 217.626C734.21 218.748 736.154 218.748 736.322 217.626C736.439 216.872 736.422 216.286 736.087 215.582C735.769 214.912 734.612 214.912 734.294 215.582H734.277Z" fill="#083354"/>
<path d="M735.4 225.698C735.4 225.095 735.367 224.526 735.25 223.923C735.065 222.951 733.456 222.951 733.272 223.923C733.155 224.526 733.121 225.095 733.121 225.698C733.155 227.172 735.367 227.172 735.4 225.698Z" fill="#083354"/>
<path d="M734.747 206.84C734.479 207.56 734.462 208.18 734.546 208.916C734.747 210.491 736.791 210.491 736.993 208.916C737.093 208.163 737.06 207.543 736.808 206.84C736.439 205.835 735.115 205.835 734.747 206.84Z" fill="#083354"/>
<path d="M735.986 190.946C735.936 191.448 735.886 191.934 735.903 192.453C735.953 193.826 737.998 193.826 738.031 192.453C738.031 191.951 737.998 191.448 737.947 190.946C737.83 189.69 736.104 189.69 735.986 190.946Z" fill="#083354"/>
<path d="M737.16 182.253C737.177 182.454 737.194 182.655 737.21 182.856C737.361 184.464 739.557 184.464 739.708 182.856C739.724 182.655 739.741 182.454 739.758 182.253C739.909 180.579 736.993 180.579 737.143 182.253H737.16Z" fill="#083354"/>
<path d="M735.233 199.035C735.199 199.337 735.182 199.638 735.199 199.939C735.249 201.464 737.512 201.464 737.562 199.939C737.562 199.638 737.562 199.353 737.529 199.035C737.344 197.578 735.434 197.578 735.249 199.035H735.233Z" fill="#083354"/>
<path d="M839.057 213.639C838.051 211.68 836.476 210.893 836.208 210.775C836.258 210.792 836.325 210.826 836.459 210.876C839.308 201.464 840.046 188.551 834.079 183.576C834.716 182.739 835.135 181.583 835.537 180.796C836.627 178.602 837.716 176.392 838.621 174.097C838.99 173.176 838.37 172.171 837.632 171.685C836.258 170.747 834.783 170.094 833.158 169.726C832.336 169.542 831.213 169.809 830.845 170.664C829.303 174.231 827.66 177.748 826.169 181.332C816.465 181.701 809.51 191.348 806.695 202.184C807.164 202.854 804.566 202.251 803.51 203.272C802.371 204.495 800.795 207.593 800.762 209.854C800.762 209.921 800.762 210.005 800.762 210.089C800.644 210.323 800.594 210.625 800.644 210.976C802.069 221.645 829.018 226.368 835.873 222.298C836.677 221.812 837.046 221.21 837.163 220.707C837.23 220.59 837.297 220.489 837.347 220.355C837.951 219.15 839.476 216.336 839.057 213.656V213.639Z" fill="white"/>
<path d="M838.152 169.592C837.18 168.285 835.068 168.168 833.61 168.537C832.755 168.754 832.789 170.011 833.61 170.228C834.163 170.379 834.733 170.53 835.303 170.714C835.923 170.898 836.526 171.3 837.197 171.267C837.951 171.233 838.688 170.312 838.152 169.592Z" fill="#90A1A5"/>
<path d="M800.929 209.687C799.722 210.307 800.426 211.965 801.65 211.378C811.32 206.689 831.8 211.998 835.487 220.891C835.923 221.93 837.632 221.494 837.18 220.406C832.772 209.637 811.119 204.512 800.929 209.687Z" fill="#90A1A5"/>
<path d="M827.124 181.818C829.42 181.734 831.515 182.471 833.409 183.711C834.565 184.464 835.571 182.655 834.481 181.885C832.269 180.327 829.554 179.791 826.906 180.143C825.951 180.277 826.186 181.835 827.124 181.818Z" fill="#90A1A5"/>
<path d="M822.766 215.231C822.481 216.621 822.297 218.011 822.062 219.418C821.677 221.762 825.666 222.081 825.934 219.736C826.101 218.329 826.168 216.922 826.168 215.515C826.168 213.907 823.085 213.639 822.766 215.231Z" fill="#90A1A5"/>
<path d="M806.828 200.743C805.638 200.961 805.638 202.82 806.845 202.636C815.492 201.33 828.498 203.39 836.274 210.893C837.112 211.697 837.95 210.156 837.162 209.335C830.056 201.799 816.632 198.951 806.811 200.76L806.828 200.743Z" fill="#90A1A5"/>
<path d="M811.773 213.02C811.505 213.824 811.337 214.644 811.22 215.482C811.102 216.319 810.7 217.425 811.102 218.212C811.471 218.898 812.51 219.434 813.382 218.898C815.192 217.793 814.672 215.298 815.041 213.656C815.426 211.898 812.359 211.295 811.773 213.02Z" fill="#90A1A5"/>
<path d="M652.994 206.136C654.301 204.26 655.96 203.624 656.262 203.524C656.212 203.524 656.128 203.557 655.994 203.591C654.67 193.91 655.994 180.93 662.664 176.475C662.178 175.571 661.927 174.382 661.675 173.561C660.955 171.267 660.234 168.955 659.698 166.577C659.48 165.622 660.251 164.685 661.055 164.249C662.547 163.428 664.122 162.909 665.765 162.675C666.603 162.558 667.675 162.943 667.91 163.83C668.865 167.549 669.938 171.2 670.843 174.934C680.345 176.191 685.658 186.457 686.73 197.561C686.161 198.198 688.825 197.812 689.697 198.935C690.619 200.258 691.691 203.507 691.356 205.768C691.356 205.852 691.323 205.919 691.306 206.002C691.39 206.254 691.39 206.555 691.289 206.89C688.205 217.441 660.904 219.753 654.804 215.046C654.083 214.494 653.815 213.84 653.798 213.321C653.748 213.204 653.715 213.087 653.664 212.953C653.262 211.697 652.206 208.732 653.044 206.103L652.994 206.136Z" fill="white"/>
<path d="M660.686 164.165C661.44 163.998 662.194 163.847 662.932 163.663C663.669 163.479 664.524 163.412 665.077 162.943C665.647 162.457 665.379 161.636 664.859 161.251C664.239 160.799 663.183 161.151 662.529 161.402C661.658 161.737 660.854 162.189 660.016 162.574C659.077 162.993 659.764 164.366 660.686 164.165Z" fill="#90A1A5"/>
<path d="M691.188 205.617C681.971 199.521 659.832 202.686 653.782 213.07C653.178 214.108 654.787 214.711 655.374 213.706C660.418 205.131 681.418 201.665 690.2 207.242C691.306 207.945 692.261 206.354 691.172 205.617H691.188Z" fill="#90A1A5"/>
<path d="M663.234 177.112C665.296 176.04 667.491 175.487 669.72 175.772C670.642 175.889 671.128 174.332 670.206 174.131C667.659 173.528 664.893 173.829 662.463 175.186C661.257 175.872 661.977 177.765 663.217 177.112H663.234Z" fill="#90A1A5"/>
<path d="M677.429 210.307C676.959 212.4 678.082 219.2 678.77 221.243C679.39 223.085 682.591 223.521 682.943 221.243C683.261 219.166 681.686 212.434 681.116 210.307C680.63 208.548 677.864 208.431 677.429 210.307Z" fill="#90A1A5"/>
<path d="M664.96 212.333C664.491 214.41 665.614 221.226 666.301 223.27C666.921 225.095 670.122 225.547 670.474 223.27C670.792 221.193 669.217 214.46 668.63 212.333C668.144 210.558 665.379 210.457 664.96 212.333Z" fill="#90A1A5"/>
<path d="M656.179 203.624C665.028 196.824 678.167 195.92 686.479 198.013C687.636 198.298 687.954 196.456 686.798 196.121C677.413 193.441 663.754 195.082 655.559 201.983C654.654 202.736 655.223 204.361 656.179 203.624Z" fill="#90A1A5"/>
<path d="M868.703 130.049C853.352 115.73 837.464 101.98 820.168 90.0213C802.957 78.1469 782.879 71.2801 764.242 62.1357C763.404 61.7337 762.533 62.3701 762.499 63.1238C761.997 63.2913 761.611 63.7602 761.846 64.3464C765.064 72.553 768.801 81.0946 772.957 88.8825C773.158 89.2677 773.443 89.5021 773.762 89.6361C773.929 89.7701 774.114 89.8873 774.348 89.9711C791.51 96.0842 806.007 103.872 820.202 115.278C832.537 125.192 844.268 135.426 858.748 142.142C860.206 142.828 861.447 141.472 860.843 140.048C860.491 139.244 860.29 138.407 860.106 137.569C860.173 137.603 860.24 137.636 860.307 137.653C860.843 138.038 861.396 138.407 861.949 138.809C862.988 139.546 864.698 138.306 864.195 137.084C864.028 136.682 863.877 136.263 863.726 135.861C863.91 135.962 864.078 136.062 864.245 136.179C865.586 137.134 867.011 135.576 866.759 134.253C866.659 133.701 866.474 133.148 866.273 132.612C866.541 132.712 866.81 132.796 867.061 132.897C868.687 133.55 869.927 131.155 868.72 130.049H868.703Z" fill="#F7BAB5"/>
<path d="M809.443 80.207C809.275 79.939 809.024 79.6878 808.639 79.5705C794.192 74.7136 779.494 64.2795 764.679 60.4944C761.863 68.2488 752.629 71.8664 745.255 70.9787C739.087 70.2418 735.484 66.574 734.763 61.5495C734.68 61.6333 728.864 63.1238 720.2 69.4212C714.116 73.8427 701.329 82.6689 694.457 85.8008C693.183 86.387 693.301 87.6766 694.038 88.4638C693.988 88.7485 693.988 89.05 694.139 89.3682C697.005 95.2803 699.569 101.293 701.697 107.49C701.982 108.31 702.72 108.629 703.423 108.578C703.792 108.964 704.362 109.131 705.016 108.763C710.915 105.413 712.708 104.71 718.222 100.506C716.328 114.507 710.647 138.038 711.133 152.09C711.15 152.76 712.457 154.15 712.96 154.133C732.635 153.346 739.205 158.856 754.673 158.856C765.483 158.856 773.293 155.657 782.226 152.559C782.997 152.291 783.533 151.638 783.483 150.231C783.198 141.421 780.902 99.9195 780.282 93.371C782.528 94.4764 781.287 93.706 783.332 94.6774C787.488 96.6704 797.963 103.571 798.482 102.214C800.896 96.034 807.398 88.2628 810.046 82.267C810.449 81.3626 810.046 80.5754 809.41 80.2405L809.443 80.207Z" fill="#1E1E1E"/>
<path d="M636.671 122.329C636.319 122.211 635.9 122.262 635.531 122.613C633.017 125.025 632.179 128.442 632.045 131.825C631.995 133.031 633.553 134.052 634.593 133.282C637.542 131.121 638.38 127.554 639.838 124.389C640.827 122.228 638.112 120.52 636.671 122.312V122.329Z" fill="#F7BAB5"/>
<path d="M785.795 311.298C777.549 314.045 767.578 311.08 759.684 308.2C757.891 307.546 758.142 310.477 759.885 311.147C768.03 314.246 778.572 316.205 785.51 313.626C786.801 313.14 787.086 310.862 785.795 311.298Z" fill="white"/>
<path d="M732.299 306.525C723.182 308.987 713.88 312.286 704.277 311.449C702.4 311.298 703.305 313.911 705.182 314.413C712.054 316.239 728.595 312.387 732.131 309.59C732.601 309.221 733.439 306.223 732.282 306.541L732.299 306.525Z" fill="white"/>
<path d="M729.803 303.761C724.725 305.034 719.68 306.558 714.535 307.63C714.569 306.441 714.082 305.252 713.529 304.247C713.144 303.544 712.356 303.46 711.719 303.745C711.736 303.745 711.753 303.711 711.77 303.694C710.664 303.946 710.446 305.252 710.328 306.207C710.328 306.29 710.328 306.374 710.312 306.441C708.15 306.994 706.072 307.898 704.111 308.987C703.474 309.338 702.938 310.042 702.938 310.812V311.03C702.938 312.018 703.424 313.274 704.479 313.274C713.228 313.308 724.272 311.147 731.445 308.317C733.959 307.329 732.535 303.075 729.786 303.761H729.803Z" fill="#1E1E1E"/>
<path d="M785.795 309.003C783.767 307.647 782.594 306.759 780.482 306.223C780.466 305.436 780.332 304.649 780.248 304.029C780.164 303.426 779.527 302.907 778.974 302.756C778.103 302.522 777.416 302.924 776.913 303.594C776.024 304.766 775.304 306.592 775.572 308.099C770.846 307.563 764.947 306.424 760.505 304.515C757.137 303.058 756.517 308.802 760.019 309.824C767.075 311.884 778.974 313.894 785.762 312.32C787.019 312.035 786.901 309.74 785.795 308.987V309.003Z" fill="#1E1E1E"/>
<path d="M761.729 85.6167C761.326 85.1142 760.455 84.9467 759.952 85.4157C759.516 85.8344 759.164 86.2866 758.829 86.7723C758.444 87.325 758.544 88.0954 759.081 88.4973C759.634 88.8993 760.405 88.7653 760.807 88.2461C760.941 88.0619 761.075 87.8944 761.226 87.7269C761.293 87.6432 761.377 87.5594 761.46 87.459C761.494 87.4255 761.511 87.392 761.544 87.3752C762.047 86.9063 762.198 86.1693 761.745 85.5999L761.729 85.6167Z" fill="#FFC41D"/>
<path d="M768.18 101.712C767.979 101.008 767.309 100.707 766.639 100.841C765.951 100.958 765.264 101.109 764.594 101.343C763.957 101.561 763.538 102.181 763.722 102.867C763.89 103.504 764.594 103.922 765.248 103.738C765.918 103.537 766.622 103.42 767.309 103.269C767.979 103.135 768.365 102.348 768.197 101.728L768.18 101.712Z" fill="#FFC41D"/>
<path d="M733.456 100.02C732.97 99.8526 732.483 99.7186 731.997 99.5678C731.361 99.3669 730.657 99.7856 730.489 100.422C730.305 101.109 730.724 101.712 731.344 101.929C731.83 102.097 732.299 102.298 732.785 102.449C733.439 102.649 734.159 102.214 734.344 101.561C734.528 100.857 734.109 100.238 733.456 100.003V100.02Z" fill="#FFC41D"/>
<path d="M734.528 117.773C734.193 117.187 733.389 116.969 732.802 117.321C732.266 117.639 731.294 118.008 730.875 118.577C730.69 118.795 730.59 119.079 730.59 119.364C730.59 120.101 731.16 120.52 731.83 120.587C732.098 120.62 732.35 120.503 732.551 120.352C732.735 120.269 732.919 120.168 733.104 120.068C733.439 119.883 733.774 119.716 734.076 119.498C734.646 119.113 734.897 118.393 734.528 117.773Z" fill="#FFC41D"/>
<path d="M746.729 128.994C746.729 128.777 746.695 128.576 746.679 128.358C746.679 128.274 746.679 128.19 746.679 128.107C746.679 128.073 746.679 128.04 746.695 128.006C746.846 127.336 746.461 126.65 745.773 126.482C745.12 126.331 744.399 126.733 744.248 127.403C744.114 127.973 744.148 128.492 744.232 129.061C744.315 129.731 744.785 130.284 745.505 130.267C746.176 130.25 746.729 129.664 746.712 128.994H746.729Z" fill="#FFC41D"/>
<path d="M742.188 86.4205C742.104 86.2363 742.02 86.0521 741.936 85.8678C741.936 85.9013 741.836 85.6334 741.819 85.5831C741.769 85.4491 741.718 85.2984 741.685 85.1644C741.517 84.5112 740.813 84.126 740.16 84.2935C739.456 84.4945 739.188 85.1477 739.305 85.8176C739.405 86.4708 739.69 87.1072 740.009 87.6934C740.327 88.2963 741.165 88.4805 741.735 88.1456C742.372 87.7771 742.472 87.0402 742.188 86.4205Z" fill="#FFC41D"/>
<path d="M762.181 118.543C761.846 118.041 761.427 117.656 760.991 117.271C760.472 116.818 759.734 116.768 759.231 117.271C758.729 117.773 758.796 118.51 759.231 119.029C759.533 119.381 759.835 119.766 760.17 120.101C760.572 120.52 761.226 120.587 761.728 120.302C762.298 119.967 762.566 119.13 762.198 118.543H762.181Z" fill="#FFC41D"/>
<path d="M757.404 101.929C755.644 101.527 753.248 101.745 751.471 101.511C752.577 99.0654 754.438 96.6034 755.108 93.974C755.292 93.2371 754.706 92.6341 754.119 92.5671C754.002 92.5169 753.885 92.4834 753.734 92.4666C750.784 92.3494 747.818 92.0479 744.868 92.1987C744.617 92.1987 744.432 92.2992 744.265 92.4164C744.064 92.5001 743.846 92.6341 743.779 92.8853C742.622 97.9935 741.198 102.499 740.243 107.423C740.108 108.126 740.796 108.562 741.365 108.645C743.108 108.897 746.159 108.863 747.902 108.98C747.047 112.464 744.952 116.098 744.064 119.565C743.896 120.218 745.17 122.077 746.226 121.056C750.047 117.354 757.538 106.837 758.711 103.42C758.963 102.666 757.957 101.963 757.404 101.913V101.929Z" fill="#FFC41D"/>
<path d="M741.835 28.5221C741.55 29.393 740.796 30.1131 739.791 29.8787C739.137 29.7279 738.651 29.4264 738.316 28.8403C738.282 28.7565 737.981 28.0364 737.997 28.0364C737.461 27.1152 737.612 25.9261 738.55 25.3064C739.372 24.7705 740.779 24.9212 741.282 25.8591C741.684 26.6128 742.137 27.6511 741.835 28.5053V28.5221ZM719.244 28.1201C718.657 27.5507 717.718 27.5507 717.132 28.1201C716.461 28.7733 716.21 29.8452 716.545 30.6993C717.182 32.3071 719.193 32.3071 719.83 30.6993C720.165 29.8452 719.914 28.7565 719.244 28.1201ZM728.411 34.4844C727.724 34.7691 726.986 34.8529 726.266 34.9533C726.802 32.8766 727.489 30.8333 728.092 28.7733C728.444 27.5674 726.601 27.065 726.215 28.2541C725.361 30.85 724.338 33.4125 723.718 36.0755C723.534 36.8794 724.238 37.7168 725.093 37.4488C726.383 37.0469 727.774 37.1808 729.031 36.6951C730.422 36.176 729.785 33.915 728.411 34.4676V34.4844ZM735.768 40.4635C735.215 39.4251 733.925 39.4753 732.902 39.4251C731.796 39.3581 730.807 39.3749 729.919 40.095C729.416 40.5137 729.551 41.4851 730.137 41.7531C731.025 42.1718 731.947 42.0881 732.902 42.1718C733.874 42.2723 734.83 42.624 735.601 41.8201C735.969 41.4516 736.02 40.9157 735.768 40.4635Z" fill="#1E1E1E"/>
<path d="M637.291 132.913C636.838 134.571 635.548 136.095 634.173 137.05C633.788 137.318 633.168 137.218 632.866 136.883C631.09 134.94 630.721 131.657 631.157 129.111C631.341 128.04 633.201 128.291 633.051 129.363C632.849 130.92 632.95 133.332 633.771 134.588C634.475 133.885 635.011 133.064 635.464 132.143C635.967 131.105 637.592 131.841 637.291 132.913ZM640.844 123.266C640.022 124.154 639.453 125.192 638.816 126.197C638.162 127.219 639.754 128.107 640.425 127.135C641.011 126.281 641.514 125.393 642.251 124.673C643.156 123.769 641.715 122.345 640.844 123.266Z" fill="#C48080"/>
<path d="M670.022 222.332C669.871 222.164 669.888 222.198 670.106 222.415C669.821 221.796 669.05 221.444 668.396 221.444C667.441 221.444 666.821 222.064 666.486 222.884C666.134 223.772 666.452 224.593 667.039 225.296C667.776 226.167 669.251 226.05 670.005 225.296C670.826 224.476 670.81 223.152 670.005 222.332H670.022Z" fill="white"/>
<path d="M679.005 221.561V221.829C679.005 224.492 683.128 224.492 683.128 221.829V221.561C683.128 218.898 679.005 218.898 679.005 221.561Z" fill="white"/>
</svg>
